<svg width="100" height="38" viewBox="0 0 100 38" fill="none" xmlns="http://www.w3.org/2000/svg">
<path d="M65.2724 7.03778L68.4394 7.07538L75.5504 25.5765L82.7628 7.30638L85.8337 7.03778V30.9465H82.8963V10.2615C82.4237 10.334 82.4344 10.8014 82.2902 11.1292C79.5344 17.3669 77.6011 24.0452 74.9415 30.3314L74.2206 30.9546L66.0735 10.2615V30.9465H65.2724V7.03778Z" fill="black"/>
<path d="M48.1826 20.7383V30.5436L47.7393 30.9036C47.4963 30.9815 47.2399 30.9385 46.9943 30.96C46.332 31.0191 45.3894 31.0916 44.9782 30.5436V7.03778H54.9918C56.2121 7.03778 59.2002 8.24398 60.2042 9.04718C63.2911 11.5106 62.9333 16.5556 59.7957 18.8579C58.8237 19.5724 55.5873 20.741 54.4578 20.741H48.1826V20.7383ZM53.1226 7.84368H48.1826V19.9324H53.1226C53.6139 19.9324 55.7074 19.3092 56.2549 19.054C58.8531 17.8424 59.072 15.1211 58.8744 12.5341C58.6848 10.0654 57.833 8.83498 55.4084 8.23058C54.917 8.10698 53.6139 7.88668 53.1199 7.84368H53.1226Z" fill="black"/>
<path d="M27.6737 20.1121C27.3548 20.7497 26.7703 21.3608 25.9201 21.9454C25.0699 22.5033 23.8211 22.7823 22.1738 22.7823C20.553 22.7823 18.9589 22.1845 17.3913 20.9889C15.8502 19.7932 15.0797 18.0131 15.0797 15.6484C15.0797 13.2837 15.8237 11.2511 17.3115 9.55067C18.7994 7.85023 20.9383 7 23.7281 7C28.8294 7 31.3801 10.1219 31.3801 16.3658C31.3801 19.2884 30.6229 21.9586 29.1084 24.3765C27.3814 27.1663 24.8042 29.0926 21.3767 30.1554C19.4903 30.7664 17.3647 31.072 15 31.072L15.0399 30.793C19.7427 30.793 23.1701 29.2786 25.3223 26.2496C26.4913 24.6023 27.2751 22.5565 27.6737 20.1121ZM27.8729 19.1157C28.1121 17.4684 28.2316 15.9539 28.2316 14.5723C28.2316 12.2342 27.7799 10.4408 26.8766 9.19199C25.9998 7.94322 24.844 7.31883 23.4093 7.31883C21.9745 7.31883 20.7523 8.11592 19.7427 9.71009C18.7596 11.3043 18.2681 13.297 18.2681 15.6882C18.2681 18.0529 18.7197 19.7799 19.6231 20.8693C20.553 21.9321 21.669 22.4635 22.9709 22.4635C23.8477 22.4635 24.6846 22.2111 25.4817 21.7062C26.3053 21.2014 26.9032 20.6966 27.2751 20.1918C27.6737 19.6604 27.8729 19.3017 27.8729 19.1157Z" fill="black"/>
</svg>
